<svg xmlns="http://www.w3.org/2000/svg" viewBox="0 0 57.20 75.30" fill="none">
  <path fill="#1ECAD3" d="M 33.15 67.84 C 33.15 67.84 33.78 61.62 21.54 49.78 C 19.27 47.59 17.07 45.39 15.02 43.11 C 14.33 44.00 13.58 44.85 12.76 45.66 C 0.40 58.60 -0.05 70.58 -0.05 70.58 C 12.60 75.33 24.93 73.59 34.05 67.28 C 33.90 67.37 33.76 67.47 33.61 67.56 C 34.06 67.26 34.50 66.95 34.93 66.64 C 35.09 66.53 35.24 66.41 35.39 66.30 C 34.81 66.73 34.22 67.15 33.62 67.55 C 33.47 67.65 33.32 67.76 33.15 67.84 Z M 36.29 6.62 C 31.22 10.72 28.13 15.82 25.67 21.14 C 26.56 21.88 27.49 22.64 28.48 23.43 C 45.57 37.04 45.68 57.57 35.71 66.05 C 38.76 63.64 41.39 60.69 43.47 57.27 C 50.15 46.32 49.51 33.92 50.16 23.23 L 50.16 23.15 C 50.16 23.11 50.17 23.06 50.17 23.01 C 50.40 19.48 50.79 16.16 51.62 13.13 C 53.69 4.61 57.04 1.69 57.24 1.53 C 48.13 -0.04 41.67 2.41 36.29 6.62 Z"/>
  <path fill="#6F7AD3" d="M 25.32 20.85 C 9.91 7.94 9.01 1.93 9.01 1.93 C 0.45 21.45 6.04 33.05 15.01 43.10 C 15.02 43.10 15.02 43.10 15.02 43.11 C 19.90 36.88 22.13 28.79 25.67 21.14 C 25.55 21.04 25.44 20.94 25.32 20.85 Z"/>
  <path fill="#425CC7" d="M 28.48 23.43 C 27.49 22.64 26.56 21.88 25.67 21.14 C 22.13 28.79 19.90 36.88 15.02 43.11 C 17.07 45.39 19.27 47.59 21.54 49.78 C 33.78 61.62 33.15 67.84 33.15 67.84 C 33.32 67.76 33.47 67.65 33.62 67.55 C 34.22 67.15 34.81 66.73 35.39 66.30 C 35.50 66.21 35.61 66.13 35.71 66.05 C 45.68 57.57 45.57 37.04 28.48 23.43 Z"/>
</svg>